<svg version="1.1" id="Camada_1" xmlns="http://www.w3.org/2000/svg" x="0" y="0" viewBox="0 0 128 128" xml:space="preserve">
  <path fill="#DB2C39" d="M0 0h128v128H0z"/>
  <path fill="#FFF" d="M43.9 27.1c-1.9.3-3.7 1-5.4 2-1.7 1-3.2 2.3-4.5 3.8-1.3 1.5-2.3 3.2-3.1 5.1-.8 1.9-1.1 3.9-1.1 6v23c0 2 .4 3.7 1.1 5.3.8 1.6 1.8 2.9 3.1 4s2.8 1.8 4.5 2.2c.4.1.7.2 1.1.2l7.9-5.8c2.5-1.8 2.6-3.9 2.7-5.5.1-1.6.2-2.8 1.8-4L62.2 56c.6-.4 1.4-.3 1.9.1.5.5.5 1.2-.1 1.6l-8.2 6c-.6.4-.6 1.1-.1 1.6s1.4.6 1.9.1l8.2-6c.6-.4 1.4-.3 1.9.1.5.5.5 1.2-.1 1.6l-8.2 6c-.6.4-.6 1.1-.1 1.6s1.4.6 1.9.1l8.2-6c.6-.4 1.4-.3 1.9.1.5.5.5 1.2-.1 1.6L61 71.9c-1.6 1.2-3.1 1.1-4.9.9-2-.1-4.5-.3-6.9 1.5L39 81.7 29.7 89v21.5l54.4-9.6c2-.4 3.9-1 5.6-2.1 1.7-1 3.2-2.3 4.5-3.8 1.3-1.5 2.3-3.1 3-5 .6-1.5 1-3.1 1.1-4.7v-.9L98 61.1c0-2-.3-3.8-1-5.3s-1.7-2.8-2.9-3.9c-1.3-1-2.7-1.8-4.4-2.2-.2 0-.4-.1-.6-.1-1.5-.3-3.1-.2-4.9.1l14.2-10.4V17.4l-54.5 9.7z"/>
</svg>
